<svg width="80" height="80" viewBox="0 0 80 80" fill="none" xmlns="http://www.w3.org/2000/svg">
<path d="M51.9994 59.3333C51.6492 59.596 51.2507 59.7871 50.8267 59.8957C50.4026 60.0043 49.9614 60.0284 49.528 59.9665C49.0947 59.9046 48.6778 59.7579 48.3011 59.5349C47.9244 59.3119 47.5954 59.0169 47.3328 58.6667C47.0701 58.3165 46.879 57.918 46.7704 57.4939C46.6617 57.0699 46.6377 56.6286 46.6996 56.1953C46.7615 55.7619 46.9081 55.345 47.1312 54.9684C47.3542 54.5917 47.6492 54.2626 47.9994 54C53.2128 50.09 56.1994 46.2867 57.9094 42.9667C55.5615 43.5711 53.0836 43.429 50.8202 42.5602C48.5568 41.6913 46.6203 40.139 45.2798 38.1188C43.9393 36.0986 43.2615 33.711 43.3406 31.2879C43.4196 28.8647 44.2517 26.5264 45.721 24.5979C47.1903 22.6694 49.2239 21.2466 51.5391 20.5271C53.8543 19.8077 56.3362 19.8274 58.6397 20.5836C60.9432 21.3397 62.9539 22.7947 64.3924 24.7464C65.8308 26.698 66.6256 29.0492 66.6661 31.4733C67.0932 35.5669 66.5119 39.7028 64.9728 43.52C62.9828 48.54 59.0928 54.0133 51.9994 59.3333ZM21.9994 59.3333C21.6492 59.596 21.2507 59.7871 20.8267 59.8957C20.4026 60.0043 19.9614 60.0284 19.528 59.9665C19.0947 59.9046 18.6778 59.7579 18.3011 59.5349C17.9244 59.3119 17.5954 59.0169 17.3328 58.6667C17.0701 58.3165 16.879 57.918 16.7704 57.4939C16.6617 57.0699 16.6377 56.6286 16.6996 56.1953C16.7615 55.7619 16.9081 55.345 17.1312 54.9684C17.3542 54.5917 17.6492 54.2626 17.9994 54C23.2128 50.09 26.1994 46.2867 27.9094 42.9667C25.5615 43.5711 23.0837 43.429 20.8202 42.5601C18.5568 41.6913 16.6203 40.139 15.2798 38.1188C13.9393 36.0986 13.2615 33.711 13.3406 31.2879C13.4197 28.8647 14.2517 26.5264 15.721 24.5979C17.1903 22.6694 19.2239 21.2466 21.5391 20.5271C23.8543 19.8077 26.3362 19.8274 28.6397 20.5836C30.9432 21.3397 32.9539 22.7947 34.3924 24.7464C35.8308 26.698 36.6256 29.0492 36.6661 31.4733C37.0932 35.5669 36.5119 39.7028 34.9728 43.52C32.9794 48.54 29.0928 54.0133 21.9994 59.3333Z" fill="#85D1A0"/>
</svg>
