<svg width="230" height="336" viewBox="0 0 230 336" fill="none" xmlns="http://www.w3.org/2000/svg">
<path d="M9.33933 0H-13.0156V335.853H9.33933V0Z" fill="#85D1A0"/>
<path d="M229.301 159.806H-233V176.046H229.301V159.806Z" fill="#85D1A0"/>
<path d="M-157.447 43.4307L-173.254 54.9143L153.639 292.396L169.446 280.912L-157.447 43.4307Z" fill="#85D1A0"/>
<path d="M153.639 43.4302L-173.254 280.912L-157.447 292.396L169.446 54.9139L153.639 43.4302Z" fill="#85D1A0"/>
<path d="M-211.628 97.1006L-220.062 112.141L208.074 238.858L216.508 223.818L-211.628 97.1006Z" fill="#85D1A0"/>
<path d="M75.1056 9.41609L-99.3203 320.449L-78.6174 326.577L95.8086 15.5436L75.1056 9.41609Z" fill="#85D1A0"/>
<path d="M208.572 97.6669L-220.305 223.074L-211.957 238.141L216.919 112.733L208.572 97.6669Z" fill="#85D1A0"/>
<path d="M-77.9215 9.23187L-98.6602 15.2944L73.9166 326.865L94.6553 320.803L-77.9215 9.23187Z" fill="#85D1A0"/>
</svg>
