<svg width="182" height="42" viewBox="0 0 182 42" fill="none" xmlns="http://www.w3.org/2000/svg">
<g clip-path="url(#clip0_1_334)">
<path fill-rule="evenodd" clip-rule="evenodd" d="M10.5 0C16.2989 0 21 4.70101 21 10.5V0H31.5C37.2989 0 42 4.70101 42 10.5C42 16.2989 37.2989 21 31.5 21C37.2989 21 42 25.7011 42 31.5C42 34.3794 40.8409 36.9881 38.9639 38.8851L38.9247 38.9247L38.8898 38.9593C36.9924 40.839 34.3818 42 31.5 42C28.6378 42 26.043 40.8548 24.1489 38.9975C24.1244 38.9734 24.0998 38.949 24.0753 38.9247C24.0523 38.9017 24.0295 38.8786 24.0067 38.8554C22.147 36.9609 21 34.3644 21 31.5C21 37.2989 16.2989 42 10.5 42C4.70101 42 0 37.2989 0 31.5V21H10.5C4.70101 21 0 16.2989 0 10.5C0 4.70101 4.70101 0 10.5 0ZM18.9 10.5C18.9 15.1392 15.1392 18.9 10.5 18.9V2.1C15.1392 2.1 18.9 5.86081 18.9 10.5ZM39.9 31.5C39.9 26.8608 36.1392 23.1 31.5 23.1C26.8608 23.1 23.1 26.8608 23.1 31.5H39.9ZM2.1 23.1V31.5C2.1 36.1392 5.86081 39.9 10.5 39.9C15.1392 39.9 18.9 36.1392 18.9 31.5V23.1H2.1ZM23.1 18.9V2.1H31.5C36.1392 2.1 39.9 5.86081 39.9 10.5C39.9 15.1392 36.1392 18.9 31.5 18.9H23.1Z" fill="#6255A5"/>
</g>
<path d="M60.8182 31V7.72727H74.8636V10.2273H63.6364V18.0909H74.1364V20.5909H63.6364V28.5H75.0455V31H60.8182ZM86.1705 31.3636C84.7159 31.3636 83.4318 30.9962 82.3182 30.2614C81.2045 29.5189 80.3333 28.4735 79.7045 27.125C79.0758 25.7689 78.7614 24.1667 78.7614 22.3182C78.7614 20.4848 79.0758 18.8939 79.7045 17.5455C80.3333 16.197 81.2083 15.1553 82.3295 14.4205C83.4508 13.6856 84.7462 13.3182 86.2159 13.3182C87.3523 13.3182 88.25 13.5076 88.9091 13.8864C89.5758 14.2576 90.0833 14.6818 90.4318 15.1591C90.7879 15.6288 91.0644 16.0152 91.2614 16.3182H91.4886V7.72727H94.1705V31H91.5795V28.3182H91.2614C91.0644 28.6364 90.7841 29.0379 90.4205 29.5227C90.0568 30 89.5379 30.428 88.8636 30.8068C88.1894 31.178 87.2917 31.3636 86.1705 31.3636ZM86.5341 28.9545C87.6098 28.9545 88.5189 28.6742 89.2614 28.1136C90.0038 27.5455 90.5682 26.7614 90.9545 25.7614C91.3409 24.7538 91.5341 23.5909 91.5341 22.2727C91.5341 20.9697 91.3447 19.8295 90.9659 18.8523C90.5871 17.8674 90.0265 17.1023 89.2841 16.5568C88.5417 16.0038 87.625 15.7273 86.5341 15.7273C85.3977 15.7273 84.4508 16.0189 83.6932 16.6023C82.9432 17.178 82.3788 17.9621 82 18.9545C81.6288 19.9394 81.4432 21.0455 81.4432 22.2727C81.4432 23.5152 81.6326 24.6439 82.0114 25.6591C82.3977 26.6667 82.9659 27.4697 83.7159 28.0682C84.4735 28.6591 85.4129 28.9545 86.5341 28.9545ZM110.455 23.8636V13.5455H113.136V31H110.455V28.0455H110.273C109.864 28.9318 109.227 29.6856 108.364 30.3068C107.5 30.9205 106.409 31.2273 105.091 31.2273C104 31.2273 103.03 30.9886 102.182 30.5114C101.333 30.0265 100.667 29.2992 100.182 28.3295C99.697 27.3523 99.4545 26.1212 99.4545 24.6364V13.5455H102.136V24.4545C102.136 25.7273 102.492 26.7424 103.205 27.5C103.924 28.2576 104.841 28.6364 105.955 28.6364C106.621 28.6364 107.299 28.4659 107.989 28.125C108.686 27.7841 109.269 27.2614 109.739 26.5568C110.216 25.8523 110.455 24.9545 110.455 23.8636ZM125.139 31.3636C123.503 31.3636 122.094 30.9773 120.912 30.2045C119.73 29.4318 118.821 28.3674 118.185 27.0114C117.548 25.6553 117.23 24.1061 117.23 22.3636C117.23 20.5909 117.556 19.0265 118.207 17.6705C118.866 16.3068 119.783 15.2424 120.957 14.4773C122.139 13.7045 123.518 13.3182 125.094 13.3182C126.321 13.3182 127.427 13.5455 128.412 14C129.397 14.4545 130.204 15.0909 130.832 15.9091C131.461 16.7273 131.851 17.6818 132.003 18.7727H129.321C129.116 17.9773 128.662 17.2727 127.957 16.6591C127.26 16.0379 126.321 15.7273 125.139 15.7273C124.094 15.7273 123.177 16 122.389 16.5455C121.609 17.0833 120.999 17.8447 120.56 18.8295C120.128 19.8068 119.912 20.9545 119.912 22.2727C119.912 23.6212 120.124 24.7955 120.548 25.7955C120.98 26.7955 121.586 27.572 122.366 28.125C123.154 28.678 124.079 28.9545 125.139 28.9545C125.836 28.9545 126.469 28.8333 127.037 28.5909C127.605 28.3485 128.086 28 128.48 27.5455C128.874 27.0909 129.154 26.5455 129.321 25.9091H132.003C131.851 26.9394 131.476 27.8674 130.878 28.6932C130.287 29.5114 129.503 30.1629 128.526 30.6477C127.556 31.125 126.427 31.3636 125.139 31.3636ZM141.06 31.4091C139.954 31.4091 138.95 31.2008 138.048 30.7841C137.147 30.3598 136.431 29.75 135.901 28.9545C135.37 28.1515 135.105 27.1818 135.105 26.0455C135.105 25.0455 135.302 24.2348 135.696 23.6136C136.09 22.9848 136.616 22.4924 137.276 22.1364C137.935 21.7803 138.662 21.5152 139.457 21.3409C140.26 21.1591 141.067 21.0152 141.878 20.9091C142.938 20.7727 143.798 20.6705 144.457 20.6023C145.124 20.5265 145.609 20.4015 145.912 20.2273C146.223 20.053 146.378 19.75 146.378 19.3182V19.2273C146.378 18.1061 146.071 17.2348 145.457 16.6136C144.851 15.9924 143.931 15.6818 142.696 15.6818C141.416 15.6818 140.412 15.9621 139.685 16.5227C138.957 17.0833 138.446 17.6818 138.151 18.3182L135.605 17.4091C136.06 16.3485 136.666 15.5227 137.423 14.9318C138.188 14.3333 139.022 13.9167 139.923 13.6818C140.832 13.4394 141.726 13.3182 142.605 13.3182C143.166 13.3182 143.81 13.3864 144.537 13.5227C145.272 13.6515 145.98 13.9205 146.662 14.3295C147.351 14.7386 147.923 15.3561 148.378 16.1818C148.832 17.0076 149.06 18.1136 149.06 19.5V31H146.378V28.6364H146.241C146.06 29.0152 145.757 29.4205 145.332 29.8523C144.908 30.2841 144.344 30.6515 143.639 30.9545C142.935 31.2576 142.075 31.4091 141.06 31.4091ZM141.469 29C142.529 29 143.423 28.7917 144.151 28.375C144.885 27.9583 145.438 27.4205 145.81 26.7614C146.188 26.1023 146.378 25.4091 146.378 24.6818V22.2273C146.264 22.3636 146.014 22.4886 145.628 22.6023C145.249 22.7083 144.81 22.803 144.31 22.8864C143.817 22.9621 143.336 23.0303 142.866 23.0909C142.404 23.1439 142.029 23.1894 141.741 23.2273C141.045 23.3182 140.393 23.4659 139.787 23.6705C139.188 23.8674 138.704 24.1667 138.332 24.5682C137.969 24.9621 137.787 25.5 137.787 26.1818C137.787 27.1136 138.132 27.8182 138.821 28.2955C139.518 28.7652 140.401 29 141.469 29ZM161.545 13.5455V15.8182H152.5V13.5455H161.545ZM155.136 9.36364H157.818V26C157.818 26.7576 157.928 27.3258 158.148 27.7045C158.375 28.0758 158.663 28.3258 159.011 28.4545C159.367 28.5758 159.742 28.6364 160.136 28.6364C160.432 28.6364 160.674 28.6212 160.864 28.5909C161.053 28.553 161.205 28.5227 161.318 28.5L161.864 30.9091C161.682 30.9773 161.428 31.0455 161.102 31.1136C160.777 31.1894 160.364 31.2273 159.864 31.2273C159.106 31.2273 158.364 31.0644 157.636 30.7386C156.917 30.4129 156.318 29.9167 155.841 29.25C155.371 28.5833 155.136 27.7424 155.136 26.7273V9.36364ZM172.71 31.3636C171.028 31.3636 169.578 30.9924 168.358 30.25C167.146 29.5 166.21 28.4545 165.551 27.1136C164.9 25.7652 164.574 24.197 164.574 22.4091C164.574 20.6212 164.9 19.0455 165.551 17.6818C166.21 16.3106 167.127 15.2424 168.301 14.4773C169.483 13.7045 170.862 13.3182 172.438 13.3182C173.347 13.3182 174.244 13.4697 175.131 13.7727C176.017 14.0758 176.824 14.5682 177.551 15.25C178.278 15.9242 178.858 16.8182 179.29 17.9318C179.722 19.0455 179.938 20.4167 179.938 22.0455V23.1818H166.483V20.8636H177.21C177.21 19.8788 177.013 19 176.619 18.2273C176.233 17.4545 175.68 16.8447 174.96 16.3977C174.248 15.9508 173.407 15.7273 172.438 15.7273C171.369 15.7273 170.445 15.9924 169.665 16.5227C168.892 17.0455 168.297 17.7273 167.881 18.5682C167.464 19.4091 167.256 20.3106 167.256 21.2727V22.8182C167.256 24.1364 167.483 25.2538 167.938 26.1705C168.4 27.0795 169.04 27.7727 169.858 28.25C170.676 28.7197 171.627 28.9545 172.71 28.9545C173.415 28.9545 174.051 28.8561 174.619 28.6591C175.195 28.4545 175.691 28.1515 176.108 27.75C176.525 27.3409 176.847 26.8333 177.074 26.2273L179.665 26.9545C179.392 27.8333 178.934 28.6061 178.29 29.2727C177.646 29.9318 176.85 30.447 175.903 30.8182C174.956 31.1818 173.892 31.3636 172.71 31.3636Z" fill="#6255A5"/>
<defs>
<clipPath id="clip0_1_334">
<rect width="42" height="42" fill="white"/>
</clipPath>
</defs>
</svg>
