<svg width="48" height="48" viewBox="0 0 48 48" fill="none" xmlns="http://www.w3.org/2000/svg">
<path d="M16.7999 12.4C17.01 12.2424 17.2491 12.1278 17.5035 12.0626C17.758 11.9974 18.0227 11.983 18.2828 12.0201C18.5428 12.0572 18.7929 12.1452 19.0189 12.2791C19.2449 12.4129 19.4423 12.5899 19.5999 12.8C19.7575 13.0101 19.8722 13.2492 19.9373 13.5036C20.0025 13.7581 20.017 14.0228 19.9798 14.2828C19.9427 14.5428 19.8547 14.793 19.7209 15.019C19.587 15.245 19.41 15.4424 19.1999 15.6C16.0719 17.946 14.2799 20.228 13.2539 22.22C14.6627 21.8574 16.1494 21.9426 17.5074 22.4639C18.8655 22.9852 20.0274 23.9166 20.8317 25.1287C21.636 26.3408 22.0426 27.7734 21.9952 29.2273C21.9478 30.6812 21.4486 32.0842 20.567 33.2413C19.6854 34.3984 18.4652 35.2521 17.0761 35.6837C15.687 36.1154 14.1978 36.1035 12.8157 35.6498C11.4336 35.1962 10.2272 34.3232 9.36412 33.1522C8.50105 31.9812 8.02422 30.5705 7.99991 29.116C7.74363 26.6599 8.09245 24.1783 9.01591 21.888C10.2099 18.876 12.5439 15.592 16.7999 12.4ZM34.7999 12.4C35.01 12.2424 35.2491 12.1278 35.5035 12.0626C35.758 11.9974 36.0228 11.983 36.2828 12.0201C36.5428 12.0572 36.7929 12.1452 37.0189 12.2791C37.2449 12.4129 37.4423 12.5899 37.5999 12.8C37.7575 13.0101 37.8722 13.2492 37.9373 13.5036C38.0025 13.7581 38.017 14.0228 37.9798 14.2828C37.9427 14.5428 37.8547 14.793 37.7209 15.019C37.587 15.245 37.41 15.4424 37.1999 15.6C34.0719 17.946 32.2799 20.228 31.2539 22.22C32.6627 21.8574 34.1494 21.9426 35.5074 22.4639C36.8655 22.9852 38.0274 23.9166 38.8317 25.1287C39.636 26.3408 40.0426 27.7734 39.9952 29.2273C39.9478 30.6812 39.4486 32.0842 38.567 33.2413C37.6854 34.3984 36.4653 35.2521 35.0761 35.6837C33.687 36.1154 32.1978 36.1035 30.8157 35.6498C29.4336 35.1962 28.2272 34.3232 27.3641 33.1522C26.5011 31.9812 26.0242 30.5705 25.9999 29.116C25.7436 26.6599 26.0925 24.1783 27.0159 21.888C28.2119 18.876 30.5439 15.592 34.7999 12.4Z" fill="#1F3E72"/>
</svg>
