<svg width="237" height="336" viewBox="0 0 237 336" fill="none" xmlns="http://www.w3.org/2000/svg">
<path d="M242.339 0H219.984V335.853H242.339V0Z" fill="#85D1A0"/>
<path d="M462.301 159.806H0V176.046H462.301V159.806Z" fill="#85D1A0"/>
<path d="M75.5533 43.4307L59.7461 54.9143L386.639 292.396L402.446 280.912L75.5533 43.4307Z" fill="#85D1A0"/>
<path d="M386.639 43.4296L59.7461 280.911L75.5533 292.395L402.446 54.9133L386.639 43.4296Z" fill="#85D1A0"/>
<path d="M21.372 97.1003L12.9375 112.141L441.074 238.858L449.508 223.818L21.372 97.1003Z" fill="#85D1A0"/>
<path d="M308.106 9.41609L133.68 320.449L154.383 326.577L328.809 15.5436L308.106 9.41609Z" fill="#85D1A0"/>
<path d="M441.572 97.6667L12.6953 223.074L21.0427 238.141L449.919 112.733L441.572 97.6667Z" fill="#85D1A0"/>
<path d="M155.079 9.23242L134.34 15.295L306.917 326.866L327.655 320.803L155.079 9.23242Z" fill="#85D1A0"/>
</svg>
