<svg width="16" height="16" viewBox="0 0 16 16" fill="none" xmlns="http://www.w3.org/2000/svg">
<path d="M14.9459 3.33346C14.4326 3.56679 13.8793 3.72012 13.3059 3.79346C13.8926 3.44012 14.3459 2.88012 14.5593 2.20679C14.0059 2.54012 13.3926 2.77346 12.7459 2.90679C12.2193 2.33346 11.4793 2.00012 10.6393 2.00012C9.0726 2.00012 7.7926 3.28012 7.7926 4.86012C7.7926 5.08679 7.81927 5.30679 7.86593 5.51346C5.4926 5.39346 3.37927 4.25346 1.9726 2.52679C1.72593 2.94679 1.58593 3.44012 1.58593 3.96012C1.58593 4.95346 2.08593 5.83346 2.85927 6.33346C2.38593 6.33346 1.94593 6.20012 1.55927 6.00012V6.02012C1.55927 7.40679 2.54593 8.56679 3.8526 8.82679C3.43309 8.94159 2.99266 8.95757 2.56593 8.87346C2.74701 9.44177 3.10163 9.93906 3.57995 10.2954C4.05826 10.6518 4.63623 10.8492 5.2326 10.8601C4.22169 11.6604 2.9686 12.093 1.67927 12.0868C1.4526 12.0868 1.22593 12.0735 0.999268 12.0468C2.26593 12.8601 3.7726 13.3335 5.38593 13.3335C10.6393 13.3335 13.5259 8.97345 13.5259 5.19346C13.5259 5.06679 13.5259 4.94679 13.5193 4.82012C14.0793 4.42012 14.5593 3.91346 14.9459 3.33346Z" fill="#1F3E72"/>
</svg>
