<svg width="16" height="16" viewBox="0 0 16 16" fill="none" xmlns="http://www.w3.org/2000/svg">
<g clip-path="url(#clip0_1_521)">
<path d="M10.0933 7.87485C9.8262 7.70333 9.53624 7.57024 9.23201 7.47952C9.04534 7.42285 8.83868 7.36752 8.62534 7.31485C8.43868 7.26285 8.21734 7.20952 7.94401 7.14952C7.61783 7.08114 7.29768 6.98661 6.98668 6.86685C6.82639 6.80459 6.68492 6.70193 6.57601 6.56885C6.4963 6.45996 6.45844 6.32603 6.46934 6.19152C6.4691 6.0473 6.51722 5.90717 6.60601 5.79352C6.73029 5.64796 6.8915 5.53857 7.07268 5.47685C7.37742 5.37214 7.69858 5.32336 8.02068 5.33285C8.26991 5.32872 8.51838 5.36152 8.75801 5.43019C8.91693 5.4749 9.06661 5.54759 9.20001 5.64485C9.28628 5.70642 9.35984 5.78406 9.41668 5.87352C9.45784 5.95121 9.51396 6.01999 9.58181 6.0759C9.64966 6.13181 9.7279 6.17375 9.81203 6.1993C9.89615 6.22485 9.9845 6.23351 10.072 6.22477C10.1595 6.21604 10.2444 6.19009 10.3218 6.14842C10.3992 6.10674 10.4676 6.05017 10.5231 5.98195C10.5785 5.91373 10.6199 5.83521 10.6449 5.75092C10.6699 5.66663 10.678 5.57823 10.6687 5.4908C10.6594 5.40338 10.6329 5.31866 10.5907 5.24152C10.4501 4.99287 10.2602 4.77554 10.0327 4.60285C9.76979 4.4009 9.47159 4.24966 9.15334 4.15685C8.78595 4.04832 8.40441 3.99528 8.02134 3.99952C7.53441 3.98904 7.04969 4.06813 6.59134 4.23285C6.17683 4.38375 5.8127 4.64744 5.54001 4.99419C5.27883 5.33897 5.13743 5.75964 5.13734 6.19219C5.12653 6.62281 5.26293 7.04424 5.52401 7.38685C5.77606 7.7043 6.10647 7.95061 6.48268 8.10152C6.76694 8.2109 7.058 8.30176 7.35401 8.37352C7.35934 8.37552 7.36334 8.38019 7.36868 8.38152C7.49668 8.42019 7.70068 8.47152 7.99534 8.53485C8.11068 8.56019 8.21868 8.58752 8.32668 8.61485C8.33734 8.61752 8.35268 8.62085 8.36268 8.62419L8.37468 8.62552C8.54001 8.66819 8.69934 8.71152 8.84534 8.75619C9.02471 8.80868 9.19591 8.88586 9.35401 8.98552C9.45259 9.04745 9.53544 9.13143 9.59601 9.23085C9.65463 9.35217 9.68168 9.48631 9.67468 9.62085C9.6839 9.795 9.63359 9.9671 9.53201 10.1089C9.39482 10.2874 9.20924 10.4227 8.99734 10.4989C8.6815 10.6208 8.34438 10.6779 8.00601 10.6669C7.6147 10.6819 7.22546 10.6033 6.87068 10.4375C6.70681 10.3502 6.56604 10.2253 6.46001 10.0729C6.38558 9.97533 6.33904 9.85943 6.32534 9.73752C6.32534 9.56071 6.2551 9.39114 6.13008 9.26612C6.00506 9.14109 5.83549 9.07085 5.65868 9.07085C5.48186 9.07085 5.31229 9.14109 5.18727 9.26612C5.06225 9.39114 4.99201 9.56071 4.99201 9.73752C5.003 10.1309 5.13216 10.5119 5.36268 10.8309C5.59305 11.1626 5.89992 11.434 6.25734 11.6222C6.80116 11.8875 7.40115 12.0172 8.00601 12.0002C8.51999 12.0126 9.03117 11.9208 9.50868 11.7302C9.95255 11.5599 10.3379 11.2652 10.6187 10.8815C10.8855 10.5077 11.0223 10.0566 11.008 9.59752C11.0142 9.24163 10.9281 8.89021 10.758 8.57752C10.5938 8.29523 10.3662 8.05493 10.0933 7.87552V7.87485ZM14.9073 9.12685C15.0871 8.03124 15.0034 6.90858 14.6632 5.85172C14.3231 4.79485 13.7362 3.83416 12.9511 3.04909C12.166 2.26402 11.2053 1.67713 10.1485 1.33696C9.09162 0.996789 7.96896 0.913114 6.87334 1.09285C6.06442 0.705 5.15504 0.577808 4.27075 0.728835C3.38645 0.879861 2.57084 1.30166 1.93649 1.936C1.30215 2.57035 0.880349 3.38596 0.729323 4.27026C0.578296 5.15456 0.705488 6.06393 1.09334 6.87285C0.913751 7.96835 0.997513 9.09087 1.3377 10.1476C1.67789 11.2043 2.26473 12.1648 3.04971 12.9498C3.83468 13.7348 4.79524 14.3216 5.85195 14.6618C6.90866 15.002 8.03118 15.0858 9.12668 14.9062C9.9356 15.294 10.845 15.4212 11.7293 15.2702C12.6136 15.1192 13.4292 14.6974 14.0635 14.063C14.6979 13.4287 15.1197 12.6131 15.2707 11.7288C15.4217 10.8445 15.2945 9.93511 14.9067 9.12619L14.9073 9.12685ZM11 13.9995C10.4942 13.9993 9.99655 13.8713 9.55334 13.6275C9.41584 13.5518 9.25609 13.5268 9.10201 13.5569C8.28039 13.7207 7.43264 13.7002 6.61991 13.4967C5.80718 13.2933 5.04974 12.912 4.40222 12.3804C3.7547 11.8487 3.23325 11.18 2.87549 10.4224C2.51772 9.66486 2.33255 8.83733 2.33334 7.99952C2.33403 7.62929 2.37064 7.26001 2.44268 6.89685C2.47284 6.74278 2.44782 6.583 2.37201 6.44552C2.05898 5.87618 1.93924 5.22061 2.0308 4.57738C2.12235 3.93415 2.42026 3.33802 2.87971 2.87864C3.33917 2.41926 3.93534 2.12146 4.57859 2.03C5.22184 1.93855 5.87739 2.0584 6.44668 2.37152C6.58429 2.44765 6.74439 2.47268 6.89868 2.44219C7.72025 2.27843 8.56793 2.29904 9.38057 2.50254C10.1932 2.70604 10.9506 3.08735 11.598 3.61898C12.2454 4.1506 12.7668 4.81929 13.1246 5.5768C13.4823 6.33432 13.6674 7.16179 13.6667 7.99952C13.666 8.36975 13.6294 8.73903 13.5573 9.10219C13.5272 9.25626 13.5522 9.41604 13.628 9.55352C13.8795 10.0103 14.0076 10.5246 13.9996 11.046C13.9916 11.5673 13.8479 12.0775 13.5826 12.5264C13.3173 12.9752 12.9396 13.3472 12.4867 13.6055C12.0338 13.8638 11.5214 13.9996 11 13.9995Z" fill="#1F3E72"/>
</g>
<defs>
<clipPath id="clip0_1_521">
<rect width="16" height="16" fill="white"/>
</clipPath>
</defs>
</svg>
