<svg width="16" height="16" viewBox="0 0 16 16" fill="none" xmlns="http://www.w3.org/2000/svg">
<path d="M6.66683 9.99967L10.1268 7.99967L6.66683 5.99967V9.99967ZM14.3735 4.77967C14.4602 5.09301 14.5202 5.51301 14.5602 6.04634C14.6068 6.57967 14.6268 7.03967 14.6268 7.43967L14.6668 7.99967C14.6668 9.45967 14.5602 10.533 14.3735 11.2197C14.2068 11.8197 13.8202 12.2063 13.2202 12.373C12.9068 12.4597 12.3335 12.5197 11.4535 12.5597C10.5868 12.6063 9.7935 12.6263 9.06016 12.6263L8.00016 12.6663C5.20683 12.6663 3.46683 12.5597 2.78016 12.373C2.18016 12.2063 1.7935 11.8197 1.62683 11.2197C1.54016 10.9063 1.48016 10.4863 1.44016 9.95301C1.3935 9.41967 1.3735 8.95967 1.3735 8.55967L1.3335 7.99967C1.3335 6.53967 1.44016 5.46634 1.62683 4.77967C1.7935 4.17967 2.18016 3.79301 2.78016 3.62634C3.0935 3.53967 3.66683 3.47967 4.54683 3.43967C5.4135 3.39301 6.20683 3.37301 6.94016 3.37301L8.00016 3.33301C10.7935 3.33301 12.5335 3.43967 13.2202 3.62634C13.8202 3.79301 14.2068 4.17967 14.3735 4.77967Z" fill="#1F3E72"/>
</svg>
